<svg width="61" height="22" viewBox="0 0 61 22" fill="none" xmlns="http://www.w3.org/2000/svg">
<g clip-path="url(#clip0_172_22440)">
<path d="M59.3158 5.83085C59.2748 5.994 59.2383 6.15716 59.1972 6.31578C58.8051 7.82947 57.5559 8.74494 55.919 8.70415C55.2944 8.69055 54.6835 8.59539 54.0862 8.40051C53.8856 8.33253 53.6303 8.42317 53.4023 8.4413C53.0968 8.46849 52.7913 8.51833 52.4904 8.51833C49.6271 8.52286 46.7638 8.51833 43.9005 8.51833H43.5859C43.6589 8.047 43.7227 7.6074 43.7911 7.17686H47.3885C47.3657 7.20405 47.3885 7.19045 47.3839 7.17686C47.3702 6.30218 47.3611 5.42749 47.3292 4.55281C47.3246 4.38966 47.2517 4.22652 47.1879 4.0679C46.9553 3.51046 46.5359 3.22494 45.9295 3.22494C45.4507 3.22494 44.9765 3.22494 44.4978 3.22494C44.4112 3.22494 44.3246 3.22494 44.2106 3.22494C44.2744 2.78533 44.3291 2.38198 44.393 1.97863C44.4021 1.92878 44.4841 1.85627 44.5297 1.85627C45.3367 1.86987 46.1529 1.82454 46.9508 1.93784C48.1408 2.10553 48.9979 3.05272 49.2077 4.31262C49.2852 4.77942 49.2897 5.25528 49.3079 5.72661C49.3216 6.18434 49.3079 6.64209 49.3079 7.11342C49.3946 7.11795 49.463 7.13154 49.5314 7.13154C50.5664 7.13154 51.6013 7.12701 52.6363 7.13607C52.8506 7.13607 52.9327 7.04543 52.9509 6.86415C52.9646 6.73725 52.9691 6.60582 52.9691 6.47892C52.9691 5.61784 52.9691 4.75675 52.9691 3.9002C52.9691 2.89863 53.3841 2.31853 54.3461 2.01942C54.7291 1.90158 55.1303 1.8472 55.5269 1.76562C55.8005 1.76562 56.0786 1.76562 56.3522 1.76562C56.416 1.78375 56.4753 1.80642 56.5391 1.81095C57.8568 1.9877 58.8188 2.82159 59.1699 4.10415C59.2246 4.30356 59.2656 4.50749 59.3158 4.7069V5.81725V5.83085ZM54.7518 3.63282C54.7701 3.88661 54.802 4.09961 54.802 4.31262C54.8066 5.12385 54.8111 5.93508 54.802 6.74631C54.802 6.94572 54.8704 7.01823 55.0528 7.03183C55.3765 7.05449 55.6957 7.09529 56.0194 7.09982C56.717 7.11342 57.1729 6.78257 57.3598 6.11637C57.5331 5.50908 57.5285 4.89272 57.3644 4.28543C57.2686 3.92287 57.068 3.60563 56.6941 3.48326C56.0194 3.26573 55.3628 3.39262 54.7518 3.63282Z" fill="white"/>
<path d="M42.9057 1.89243C42.8373 2.34563 42.7689 2.78071 42.696 3.24751C42.5957 3.24751 42.4999 3.24751 42.4042 3.24751C41.1914 3.24751 39.9786 3.24751 38.7658 3.24751C38.5971 3.24751 38.4239 3.2475 38.2552 3.27016C37.7582 3.33361 37.4983 3.63725 37.5211 4.11765C37.5439 4.58898 37.8403 4.90622 38.319 4.91529C38.9345 4.93342 39.55 4.91529 40.161 4.92888C40.4345 4.93342 40.7127 4.95607 40.9771 5.01046C41.9938 5.22799 42.6413 6.03469 42.623 7.07252C42.623 7.33538 42.5911 7.60278 42.5273 7.8611C42.3221 8.69046 41.7112 9.08927 40.9224 9.24336C40.5212 9.32041 40.1063 9.3612 39.6959 9.3612C37.0013 9.36573 34.3067 9.37026 31.6167 9.3476C29.9389 9.32948 28.8264 8.24632 28.7306 6.58307C28.685 5.76277 28.644 4.94247 28.8765 4.1403C29.255 2.81242 30.299 2.00573 31.6897 1.97853C32.5377 1.96494 33.3857 1.97853 34.252 1.97853C34.1836 2.4408 34.1198 2.88494 34.0469 3.35627C33.7186 3.35627 33.3994 3.35627 33.0757 3.35627C32.7611 3.35627 32.4465 3.35174 32.1274 3.36533C31.5574 3.38799 31.1334 3.65992 30.9146 4.1811C30.796 4.47115 30.7094 4.79745 30.7003 5.11016C30.682 5.69479 30.6729 6.28848 30.7641 6.85952C30.8644 7.52572 31.3249 7.91548 31.9951 7.95627C32.7839 8.00159 33.5772 7.99252 34.3706 7.99252C36.1077 7.99705 37.8494 7.99706 39.5865 7.99706C39.7142 7.99706 39.8464 7.99706 39.9741 7.96987C40.4984 7.87016 40.7993 7.48494 40.7583 6.97735C40.7172 6.4743 40.3525 6.14799 39.8099 6.13893C39.0485 6.12533 38.2871 6.13893 37.5302 6.10268C36.632 6.05736 35.98 5.5543 35.743 4.78839C35.4694 3.90012 35.7202 2.96652 36.3676 2.46346C36.8874 2.06011 37.4983 1.89696 38.1366 1.88337C39.6914 1.85617 41.2416 1.86977 42.7963 1.86523C42.8191 1.86523 42.8419 1.87431 42.892 1.8879L42.9057 1.89243Z" fill="white"/>
<path d="M59.3149 21.0762C58.7131 20.9675 58.1113 20.8496 57.5049 20.759C57.3362 20.7318 57.1538 20.7771 56.9805 20.8088C56.2465 20.9448 55.5124 21.0309 54.7692 20.836C53.8938 20.6049 53.3923 19.9931 53.3649 19.1048C53.333 18.1848 53.7616 17.5231 54.6598 17.2739C55.1887 17.1288 55.7541 17.088 56.3057 17.0382C56.6796 17.0019 57.0626 17.0337 57.4365 17.0337C57.6188 16.2677 57.2632 15.7919 56.4972 15.7783C55.6537 15.7647 54.8467 15.9505 54.0534 16.2224C53.9805 16.2496 53.903 16.2677 53.8026 16.2995C53.7343 15.8417 53.6704 15.4021 53.602 14.9444C54.9106 14.5275 56.21 14.1513 57.5961 14.4277C58.6082 14.6272 59.1417 15.2073 59.2739 16.2179C59.283 16.2813 59.3012 16.3403 59.3149 16.4037V21.0853V21.0762ZM56.7617 18.1349C56.7617 18.1349 56.7617 18.1168 56.7571 18.1032C56.4106 18.1531 56.0504 18.1667 55.713 18.2573C55.3665 18.3525 55.2024 18.6788 55.2343 19.0549C55.2616 19.3767 55.4531 19.6396 55.8042 19.6713C56.1644 19.703 56.5428 19.6713 56.8985 19.6124C57.5003 19.5081 57.5003 19.4855 57.4957 18.8737C57.4957 18.638 57.555 18.3253 57.4319 18.1848C57.3225 18.0624 56.9942 18.1395 56.7617 18.1259V18.1349Z" fill="white"/>
<path d="M38.0857 20.8632H36.1798V20.5686C36.1798 19.363 36.1798 18.1575 36.1798 16.952C36.1798 16.8251 36.1798 16.6937 36.1662 16.5668C36.1206 16.1997 35.8835 15.955 35.5279 15.9142C35.0947 15.8689 34.6752 15.9414 34.3287 16.1181C34.3424 16.6484 34.3606 17.1514 34.3652 17.65C34.3698 18.6289 34.3652 19.6123 34.3652 20.5912V20.8632H32.464V20.5867C32.464 19.3812 32.4548 18.1757 32.464 16.9702C32.4776 16.032 32.0536 15.7873 31.1691 15.9414C30.6402 16.032 30.6402 16.0456 30.6402 16.5759C30.6402 17.9037 30.6402 19.2271 30.6402 20.555V20.8586H28.707V20.5686C28.707 19.0095 28.707 17.4505 28.707 15.887C28.707 15.0939 28.9076 14.831 29.6827 14.618C30.6356 14.3597 31.6022 14.2328 32.5825 14.4277C32.8469 14.4821 33.1023 14.5954 33.3485 14.7132C33.4761 14.7766 33.5673 14.7902 33.6995 14.7359C34.6342 14.3461 35.6008 14.2237 36.5902 14.4639C37.461 14.677 38.0082 15.2842 38.0401 16.1725C38.0857 17.4098 38.0674 18.647 38.0811 19.8842C38.0811 20.206 38.0811 20.5232 38.0811 20.8586L38.0857 20.8632Z" fill="white"/>
<path d="M50.3687 14.6138C50.3687 14.5005 50.3687 14.4189 50.3687 14.3328C50.3687 13.5443 50.3687 12.7557 50.3687 11.9717C50.3687 11.8448 50.3869 11.7586 50.5328 11.736C51.1073 11.6453 51.6772 11.5456 52.2882 11.4414V11.7133C52.2882 14.3011 52.2882 16.8889 52.2882 19.4767C52.2882 20.2199 52.124 20.4465 51.4128 20.6595C50.4872 20.9405 49.5389 21.013 48.586 20.868C47.2045 20.6641 46.2835 19.6308 46.1741 18.1896C46.1285 17.5687 46.1467 16.9569 46.3063 16.3496C46.63 15.1305 47.5054 14.4099 48.7683 14.3827C49.1969 14.3736 49.6301 14.4779 50.0586 14.5322C50.1498 14.5458 50.241 14.5776 50.3687 14.6138ZM50.3687 17.6956V16.7575C50.3687 16.1834 50.0769 15.8707 49.4933 15.8193C48.8139 15.7604 48.3215 16.0867 48.1528 16.7348C47.9932 17.333 47.9932 17.9449 48.1528 18.5431C48.3352 19.2093 48.7911 19.5447 49.4842 19.5311C49.6939 19.5311 49.8991 19.4812 50.1088 19.4676C50.3048 19.454 50.3778 19.3724 50.3732 19.164C50.355 18.6745 50.3687 18.185 50.3687 17.6956Z" fill="white"/>
<path d="M43.2429 17.0293C43.3067 16.064 43.0058 15.7467 42.0802 15.7739C41.3142 15.7966 40.5756 15.9643 39.8552 16.2135C39.7777 16.2407 39.7048 16.2634 39.5908 16.2951C39.527 15.8646 39.4677 15.4476 39.413 15.0262C39.4084 14.9854 39.4677 14.9129 39.5133 14.8993C40.5528 14.5684 41.606 14.2738 42.7185 14.3328C42.8872 14.3418 43.0559 14.3599 43.2246 14.3871C44.4739 14.6047 45.0666 15.2845 45.0757 16.5534C45.0894 17.9992 45.0757 19.4494 45.0757 20.8951C45.0757 20.945 45.0712 20.9903 45.0666 21.0673C44.8523 21.0311 44.6472 21.0084 44.4511 20.9586C43.676 20.7637 42.9055 20.7229 42.1076 20.8906C41.5376 21.013 40.9495 20.9722 40.3841 20.7773C39.5954 20.5054 39.1713 19.9253 39.144 19.0868C39.1166 18.2348 39.4905 17.6366 40.2565 17.3148C40.7808 17.0973 41.3325 17.0384 41.8933 17.0248C42.3355 17.0157 42.7778 17.0248 43.2337 17.0248L43.2429 17.0293ZM43.2839 18.1804C42.7277 18.1804 42.2216 18.1487 41.7155 18.1895C41.255 18.2303 40.9951 18.5838 41.0179 19.0234C41.0407 19.4313 41.3325 19.7349 41.7975 19.7123C42.258 19.6896 42.7185 19.5763 43.179 19.4902C43.2201 19.4811 43.2839 19.4086 43.2839 19.3633C43.293 18.969 43.2884 18.5793 43.2884 18.1804H43.2839Z" fill="white"/>
<path d="M25.7261 1.77441H1.11914V9.87765H25.7261V1.77441Z" fill="white"/>
<path d="M25.7261 12.8242H1.11914V20.9275H25.7261V12.8242Z" fill="white"/>
</g>
<defs>
<clipPath id="clip0_172_22440">
<rect width="60" height="21" fill="white" transform="translate(0.273438 0.925781)"/>
</clipPath>
</defs>
</svg>
