<svg width="43" height="42" viewBox="0 0 43 42" fill="none" xmlns="http://www.w3.org/2000/svg">
<circle cx="21.2734" cy="21" r="21" fill="#7E6B55"/>
<path fill-rule="evenodd" clip-rule="evenodd" d="M27.425 12.5H13.8784C12.2768 12.5 10.9785 13.7983 10.9785 15.3999V26.1558C10.9785 26.3846 11.164 26.5701 11.3928 26.5701H19.808C19.5943 25.9329 19.4785 25.2508 19.4785 24.5417C19.4785 21.0209 22.3327 18.1667 25.8535 18.1667C27.5955 18.1667 29.1743 18.8653 30.3249 19.9978V15.3999C30.3249 13.7983 29.0266 12.5 27.425 12.5ZM17.3932 24.6383H13.113C12.9987 24.6383 12.9059 24.5456 12.9059 24.4312V21.9493C12.9059 21.4917 13.2769 21.1208 13.7344 21.1208H17.3932C17.8508 21.1208 18.2218 21.4917 18.2218 21.9493V23.8098C18.2218 24.2674 17.8508 24.6383 17.3932 24.6383ZM13.501 16.8307H22.9673C23.3105 16.8307 23.5887 16.5525 23.5887 16.2093V15.6293C23.5887 15.2861 23.3105 15.0079 22.9673 15.0079H13.501C13.1577 15.0079 12.8795 15.2861 12.8795 15.6293V16.2093C12.8795 16.5525 13.1577 16.8307 13.501 16.8307ZM25.5455 16.8307H27.8029C28.146 16.8307 28.4243 16.5525 28.4243 16.2093V15.6293C28.4243 15.2861 28.146 15.0079 27.8029 15.0079H25.5455C25.2022 15.0079 24.924 15.2861 24.924 15.6293V16.2093C24.924 16.5525 25.2022 16.8307 25.5455 16.8307ZM25.8535 29.5C28.5919 29.5 30.8118 27.2801 30.8118 24.5417C30.8118 21.8033 28.5919 19.5833 25.8535 19.5833C23.1151 19.5833 20.8952 21.8033 20.8952 24.5417C20.8952 27.2801 23.1151 29.5 25.8535 29.5ZM26.4316 21.7792L27.0512 23.0235C27.0723 23.0657 27.1128 23.0949 27.1597 23.1017L28.5454 23.3012C28.9598 23.3609 29.1253 23.8656 28.8254 24.1554L27.8228 25.124C27.7888 25.1568 27.7733 25.204 27.7813 25.2504L28.018 26.6181C28.0888 27.0272 27.6555 27.3391 27.2849 27.146L26.0455 26.5002C26.0036 26.4784 25.9534 26.4784 25.9115 26.5002L24.0249 27.4832C23.919 27.5384 23.7952 27.4493 23.8154 27.3324L24.1757 25.2504C24.1837 25.204 24.1682 25.1568 24.1343 25.124L23.1316 24.1554C22.8318 23.8656 22.9972 23.3609 23.4117 23.3012L24.7973 23.1017C24.8442 23.0949 24.8848 23.0657 24.9058 23.0235L25.5254 21.7792C25.7108 21.4069 26.2463 21.4069 26.4316 21.7792Z" fill="white"/>
</svg>
