<svg width="43" height="42" viewBox="0 0 43 42" fill="none" xmlns="http://www.w3.org/2000/svg">
<circle cx="21.2734" cy="21" r="21" fill="#5E6165"/>
<path fill-rule="evenodd" clip-rule="evenodd" d="M30.3945 19.7645V22.2355C30.3945 22.5029 30.2029 22.7318 29.9397 22.779L28.2528 23.081C28.0583 23.1158 27.8962 23.2516 27.8307 23.4381C27.7414 23.6918 27.6386 23.9392 27.5231 24.1793C27.4374 24.3577 27.4557 24.5686 27.5688 24.7311L28.5484 26.138C28.7012 26.3574 28.6748 26.6548 28.4857 26.8439L26.7384 28.5911C26.5494 28.7802 26.252 28.8066 26.0326 28.6538L24.6256 27.6742C24.4632 27.5611 24.2523 27.5428 24.0738 27.6286C23.8337 27.7441 23.5864 27.8469 23.3326 27.9361C23.1462 28.0017 23.0104 28.1637 22.9755 28.3583L22.6735 30.0452C22.6264 30.3084 22.3974 30.5 22.1301 30.5H19.659C19.3916 30.5 19.1627 30.3084 19.1156 30.0452L18.8126 28.353C18.7778 28.1589 18.6425 27.9971 18.4566 27.9312C18.2052 27.8422 17.9601 27.7398 17.7219 27.6249C17.5433 27.5388 17.332 27.5568 17.1693 27.6702L15.7565 28.6538C15.5371 28.8066 15.2397 28.7802 15.0507 28.5911L13.3034 26.8439C13.1143 26.6548 13.0879 26.3574 13.2407 26.138L14.2244 24.7252C14.3377 24.5625 14.3558 24.3512 14.2696 24.1727C14.1547 23.9345 14.0524 23.6893 13.9633 23.4379C13.8974 23.252 13.7357 23.1167 13.5415 23.0819L11.8494 22.779C11.5862 22.7318 11.3945 22.5029 11.3945 22.2355V19.7645C11.3945 19.4971 11.5862 19.2682 11.8494 19.221L13.5363 18.919C13.7308 18.8842 13.8929 18.7484 13.9584 18.5619C14.0477 18.3082 14.1505 18.0608 14.266 17.8207C14.3517 17.6423 14.3334 17.4313 14.2203 17.2689L13.2407 15.862C13.0879 15.6426 13.1143 15.3452 13.3034 15.1561L15.0507 13.4088C15.2397 13.2198 15.5371 13.1934 15.7565 13.3461L17.1635 14.3258C17.3259 14.4389 17.5368 14.4571 17.7152 14.3714C17.9554 14.2559 18.2028 14.1531 18.4565 14.0639C18.6429 13.9983 18.7787 13.8362 18.8135 13.6417L19.1156 11.9548C19.1627 11.6916 19.3916 11.5 19.659 11.5H22.1301C22.3974 11.5 22.6264 11.6916 22.6735 11.9548L22.9765 13.647C23.0112 13.8411 23.1465 14.0029 23.3325 14.0687C23.5838 14.1578 23.829 14.2602 24.0672 14.3751C24.2458 14.4612 24.4571 14.4431 24.6198 14.3298L26.0326 13.3461C26.252 13.1934 26.5494 13.2198 26.7384 13.4088L28.4857 15.1561C28.6748 15.3452 28.7012 15.6426 28.5484 15.862L27.5647 17.2747C27.4514 17.4375 27.4333 17.6488 27.5195 17.8273C27.6344 18.0655 27.7367 18.3107 27.8258 18.5621C27.8916 18.748 28.0534 18.8833 28.2475 18.9181L29.9397 19.221C30.2029 19.2682 30.3945 19.4971 30.3945 19.7645ZM20.8947 24.4759C22.8143 24.4759 24.3703 22.9198 24.3703 21.0003C24.3703 19.0808 22.8143 17.5247 20.8947 17.5247C18.9752 17.5247 17.4191 19.0808 17.4191 21.0003C17.4191 22.9198 18.9752 24.4759 20.8947 24.4759Z" fill="white"/>
</svg>
