<svg width="43" height="42" viewBox="0 0 43 42" fill="none" xmlns="http://www.w3.org/2000/svg">
<rect x="0.273438" width="42" height="42" rx="21" fill="#7E6B55"/>
<path d="M29.7751 17.9807H27.2856C26.9069 17.9807 26.6003 17.6642 26.6003 17.2739V16.6146C26.6003 16.2243 26.9069 15.9078 27.2856 15.9078H29.7751C30.1529 15.9078 30.4603 16.2243 30.4603 16.6146V17.2739C30.4603 17.6642 30.1529 17.9807 29.7751 17.9807ZM25.0314 17.9807H12.7774C12.3978 17.9807 12.0922 17.6642 12.0922 17.2739V16.6146C12.0922 16.2243 12.3978 15.9078 12.7774 15.9078H25.0314C25.4093 15.9078 25.7167 16.2243 25.7167 16.6146V17.2739C25.7167 17.6642 25.4093 17.9807 25.0314 17.9807ZM28.9713 13H13.5769C11.9359 13 10.6074 14.3712 10.6074 16.0622V28.2933C10.6074 28.6841 10.914 29 11.2927 29H28.9713C30.6114 29 31.9408 27.6295 31.9408 25.9378V16.0622C31.9408 14.3712 30.6114 13 28.9713 13ZM17.0393 27.063H12.3197C12.1943 27.063 12.0922 26.9571 12.0922 26.827V24.0047C12.0922 23.4845 12.5009 23.0627 13.005 23.0627H17.0393C17.5451 23.0627 17.9538 23.4845 17.9538 24.0047V26.1203C17.9538 26.6406 17.5451 27.063 17.0393 27.063Z" fill="white"/>
</svg>
