<svg width="17" height="17" viewBox="0 0 17 17" fill="none" xmlns="http://www.w3.org/2000/svg">
<path d="M7.66758 2.0293H10.964C11.3013 2.0293 11.6254 2.16477 11.8645 2.40383L13.668 4.20742C13.9071 4.44648 14.0426 4.77055 14.0426 5.10789V10.9543C14.0426 11.6582 13.4715 12.2293 12.7676 12.2293H7.66758C6.96367 12.2293 6.39258 11.6582 6.39258 10.9543V3.3043C6.39258 2.60039 6.96367 2.0293 7.66758 2.0293ZM3.41758 5.4293H5.54258V7.1293V7.37215V12.0793C5.54258 12.6316 5.99029 13.0793 6.54258 13.0793H8.94258H10.6426V14.3543C10.6426 15.0582 10.0715 15.6293 9.36758 15.6293H3.41758C2.71367 15.6293 2.14258 15.0582 2.14258 14.3543V6.7043C2.14258 6.00039 2.71367 5.4293 3.41758 5.4293Z" fill="#292A2B"/>
</svg>
