<svg width="43" height="42" viewBox="0 0 43 42" fill="none" xmlns="http://www.w3.org/2000/svg">
<circle cx="21.2734" cy="21" r="21" fill="#412930"/>
<g clip-path="url(#clip0_187_68020)">
<path d="M13.0112 12.9502H27.3773C28.9076 12.9502 30.1481 14.1908 30.1481 15.7211V18.4903C29.2004 17.8768 28.0916 17.491 26.8992 17.4102C26.3644 17.0449 26.0135 16.4305 26.0135 15.734H14.3748C14.3748 16.8543 13.4668 17.7623 12.3465 17.7623V22.6164C13.4668 22.6164 14.3748 23.5244 14.3748 24.6447H19.5867C19.6438 25.6452 19.9156 26.5883 20.3566 27.4286H10.6666C10.4312 27.4286 10.2402 27.2378 10.2402 27.0023V15.7211C10.2402 14.1908 11.4809 12.9502 13.0112 12.9502Z" fill="white"/>
<path d="M20.1943 17.6317C21.079 17.6317 21.8587 18.0808 22.318 18.7635C21.0456 19.7188 20.1165 21.1065 19.7489 22.7085C18.5486 22.4978 17.6365 21.4501 17.6365 20.1894C17.6365 18.7768 18.7817 17.6317 20.1943 17.6317Z" fill="white"/>
<path fill-rule="evenodd" clip-rule="evenodd" d="M26.4286 29.9093C23.3018 29.9093 20.767 27.3745 20.767 24.2477C20.767 21.1208 23.3018 18.5861 26.4286 18.5861C29.5554 18.5861 32.0902 21.1208 32.0902 24.2477C32.0902 27.3745 29.5555 29.9093 26.4286 29.9093ZM26.8912 21.1444C26.6352 20.9116 26.2195 20.9116 25.9636 21.1444L23.3426 23.5284C23.0866 23.7612 23.0866 24.1393 23.3426 24.3721C23.5986 24.6049 24.0142 24.6049 24.2702 24.3721L25.7732 23.005V26.9293C25.7732 27.259 26.066 27.5253 26.4284 27.5253C26.7908 27.5253 27.0837 27.259 27.0837 26.9293V23.005L28.5866 24.3721C28.8426 24.6049 29.2583 24.6049 29.5142 24.3721C29.7702 24.1393 29.7702 23.7612 29.5142 23.5284L26.8932 21.1444H26.8912Z" fill="white"/>
</g>
<defs>
<clipPath id="clip0_187_68020">
<rect width="23" height="23" fill="white" transform="translate(9.77344 9.5)"/>
</clipPath>
</defs>
</svg>
