<svg width="35" height="35" viewBox="0 0 35 35" fill="none" xmlns="http://www.w3.org/2000/svg">
<circle opacity="0.1" cx="17.0117" cy="17.75" r="17" fill="white"/>
<path fill-rule="evenodd" clip-rule="evenodd" d="M9.51367 17.7589C9.51367 13.5339 12.9387 10.1089 17.1637 10.1089C21.3886 10.1089 24.8137 13.5339 24.8137 17.7589C24.8137 21.9839 21.3886 25.4089 17.1637 25.4089C12.9387 25.4089 9.51367 21.9839 9.51367 17.7589ZM16.4378 19.9998L19.6149 16.2932C19.7496 16.136 19.7314 15.8994 19.5742 15.7647L19.2896 15.5208C19.1324 15.3861 18.8957 15.4043 18.761 15.5615L16.3849 18.3335C16.2894 18.4452 16.1187 18.4505 16.0163 18.3453L15.0812 17.3849C14.9368 17.2365 14.6994 17.2335 14.5511 17.3779L14.2826 17.6393C14.1341 17.7838 14.1311 18.0209 14.2755 18.1693L16.069 20.0115C16.1715 20.1167 16.3421 20.1115 16.4378 19.9998Z" fill="white"/>
</svg>
