<svg width="43" height="42" viewBox="0 0 43 42" fill="none" xmlns="http://www.w3.org/2000/svg">
<circle cx="21.2734" cy="21" r="21" fill="#313C5D"/>
<path fill-rule="evenodd" clip-rule="evenodd" d="M13.1097 11.7998H26.4786C27.8929 11.7998 29.0394 12.9606 29.0394 14.3927V20.0784C28.3928 19.7978 27.6811 19.6424 26.9342 19.6424C23.9773 19.6424 21.5717 22.0781 21.5717 25.072C21.5717 25.9772 21.7917 26.8315 22.1803 27.5828H10.9948C10.7485 27.5828 10.5488 27.3806 10.5488 27.1313V14.3927C10.5488 12.9606 11.6954 11.7998 13.1097 11.7998ZM13.1002 15.7526H26.4899C26.8482 15.7526 27.1387 15.4585 27.1387 15.0957V14.3626C27.1387 13.9998 26.8482 13.7057 26.4899 13.7057H13.1002C12.7419 13.7057 12.4514 13.9998 12.4514 14.3626V15.0957C12.4514 15.4585 12.7419 15.7526 13.1002 15.7526ZM12.4326 23.8866H17.3657C18.7073 23.8866 19.7949 22.7854 19.7949 21.427C19.7949 20.0685 18.7073 18.9674 17.3657 18.9674H12.4326V23.8866ZM16.6892 22.8231C17.4508 22.8231 18.0681 22.1981 18.0681 21.427C18.0681 20.6559 17.4508 20.0309 16.6892 20.0309C15.9277 20.0309 15.3103 20.6559 15.3103 21.427C15.3103 22.1981 15.9277 22.8231 16.6892 22.8231ZM31.9987 25.3736C31.9987 28.039 29.8646 30.1998 27.2321 30.1998C24.5995 30.1998 22.4654 28.039 22.4654 25.3736C22.4654 22.7081 24.5995 20.5473 27.2321 20.5473C29.8646 20.5473 31.9987 22.7081 31.9987 25.3736ZM27.413 28.1688H27.0475C26.8457 28.1688 26.6821 28.0031 26.6821 27.7988V25.9291H24.8364C24.6346 25.9291 24.471 25.7634 24.471 25.559V25.189C24.471 24.9847 24.6346 24.819 24.8364 24.819H26.6821V22.9493C26.6821 22.7449 26.8457 22.5793 27.0475 22.5793H27.413C27.6148 22.5793 27.7785 22.7449 27.7785 22.9493V24.819H29.626C29.8278 24.819 29.9914 24.9847 29.9914 25.189V25.559C29.9914 25.7634 29.8278 25.9291 29.626 25.9291H27.7785V27.7988C27.7785 28.0031 27.6148 28.1688 27.413 28.1688Z" fill="white"/>
</svg>
