<svg id="Layer_1" xmlns="http://www.w3.org/2000/svg" width="97" height="97" viewBox="0 0 97 97">
  <g id="Group_54710" data-name="Group 54710">
    <circle id="Ellipse_2943" data-name="Ellipse 2943" cx="48.5" cy="48.5" r="48.5" fill="#c75c5c"/>
  </g>
  <g id="Group_54717" data-name="Group 54717" transform="translate(5.29 6.408)">
    <g id="Group_54711" data-name="Group 54711" transform="translate(18.21 20.922)" opacity="0.2">
      <path id="Path_14079" data-name="Path 14079" d="M18.193,59c-5.5,0-7.756-3.9-5-8.667l18.822-32.6c2.752-4.767,7.255-4.767,10.008,0l18.822,32.6c2.752,4.767.5,8.667-5,8.667Z" transform="translate(-12.015 -14.154)" fill="#231f20"/>
    </g>
    <g id="Group_54712" data-name="Group 54712" transform="translate(18.21 18.421)">
      <path id="Path_14080" data-name="Path 14080" d="M18.193,57c-5.5,0-7.756-3.9-5-8.667l18.822-32.6c2.752-4.767,7.255-4.767,10.008,0l18.822,32.6c2.752,4.767.5,8.667-5,8.667Z" transform="translate(-12.015 -12.154)" fill="#f5cf87"/>
    </g>
    <g id="Group_54713" data-name="Group 54713" transform="translate(40.708 30.738)">
      <path id="Path_14081" data-name="Path 14081" d="M35,34.509a2.5,2.5,0,0,1-2.5,2.5h0a2.5,2.5,0,0,1-2.5-2.5V24.5A2.5,2.5,0,0,1,32.5,22h0A2.5,2.5,0,0,1,35,24.5Z" transform="translate(-30 -22)" fill="#4f5d73"/>
    </g>
    <g id="Group_54714" data-name="Group 54714" transform="translate(40.708 50.753)">
      <path id="Path_14082" data-name="Path 14082" d="M35,40.5A2.5,2.5,0,0,1,32.5,43h0A2.5,2.5,0,0,1,30,40.5h0A2.5,2.5,0,0,1,32.5,38h0A2.5,2.5,0,0,1,35,40.5Z" transform="translate(-30 -38)" fill="#4f5d73"/>
    </g>
  </g>
</svg>
