<svg width="43" height="42" viewBox="0 0 43 42" fill="none" xmlns="http://www.w3.org/2000/svg">
<circle cx="21.7344" cy="21" r="21" fill="#2F413C"/>
<path fill-rule="evenodd" clip-rule="evenodd" d="M22.3223 11.6684C21.9554 11.4608 21.507 11.4608 21.1438 11.6684L14.7805 15.3077L14.6175 15.367V15.4003L12.846 16.4158C12.379 16.6826 12.1492 17.2311 12.2863 17.75C12.4235 18.2688 12.8941 18.632 13.4315 18.632H30.0383C30.5757 18.632 31.0464 18.2688 31.1835 17.75C31.3206 17.2311 31.0909 16.6826 30.6239 16.4158L28.8487 15.4003V15.367L28.6893 15.304L22.3223 11.6684ZM21.7346 16.2559C22.426 16.2559 22.9864 15.6955 22.9864 15.0041C22.9864 14.3127 22.426 13.7523 21.7346 13.7523C21.0433 13.7523 20.4828 14.3127 20.4828 15.0041C20.4828 15.6955 21.0433 16.2559 21.7346 16.2559Z" fill="white"/>
<path d="M16.9893 19.8143H14.6212V27.0892C14.5989 27.1041 14.5767 27.1152 14.5544 27.13L12.7755 28.316C12.3382 28.605 12.1455 29.1461 12.2975 29.6464C12.4494 30.1467 12.909 30.4877 13.4315 30.4877H30.0346C30.5572 30.4877 31.0204 30.1467 31.1724 29.6464C31.3243 29.1461 31.1279 28.605 30.6943 28.316L28.9154 27.13C28.8932 27.1152 28.8709 27.1004 28.8487 27.0892V19.8143H26.4768V26.9299H24.9944V19.8143H22.6225V26.9299H20.8436V19.8143H18.4718V26.9299H16.9893V19.8143Z" fill="white"/>
</svg>
