<svg width="77" height="37" viewBox="0 0 77 37" fill="none" xmlns="http://www.w3.org/2000/svg">
<path d="M22.4849 20.2189V13.976H24.9295V19.8351C24.9295 21.2086 25.5762 21.8756 26.8287 21.8756C28.344 21.8756 28.7074 20.9262 28.7074 19.8147V13.976H31.1519V20.2574C31.1519 22.4912 29.2692 23.8757 26.8081 23.8757C24.4443 23.8757 22.4849 22.6029 22.4849 20.2189ZM39.4926 13.7998C38.9433 13.7998 38.5281 13.8064 37.9404 13.8064C36.4656 13.8064 35.6572 15.1768 35.3441 16.091L35.2509 16.0881L35.2678 13.9761H33.1465V23.6534H35.5911V17.9361C35.5911 16.8202 36.4578 16.0935 37.8922 16.0935C38.3339 16.0935 38.9329 16.1016 39.4926 16.1016V13.7998ZM45.5185 15.7135C44.2659 15.7135 43.4173 16.4408 43.4173 17.6732V21.2896C43.7407 21.5928 44.4679 21.9564 45.276 21.9564C46.9731 21.9564 47.7209 20.6836 47.7209 18.5824C47.7209 16.7439 47.074 15.7135 45.5185 15.7135ZM43.1951 13.9761L43.1832 15.5228L43.3365 15.5212C43.7844 14.5546 44.8315 13.7537 46.367 13.7537C48.4076 13.7537 50.2461 14.9459 50.2461 18.4815C50.2461 21.815 48.5692 23.8757 45.8416 23.8757C44.8315 23.8757 43.8376 23.3656 43.4173 22.9008V27.1487H40.993V13.9761H43.1951ZM57.4449 20.4208C57.4449 21.3906 56.6973 22.1178 55.4448 22.1178C54.4345 22.1178 53.9901 21.502 53.9901 20.6532C53.9901 19.7034 54.6359 18.9781 55.8699 18.9781H57.4449V20.4208ZM60.945 21.9782C60.7271 21.9782 60.5982 21.9766 60.3946 21.9766C59.9905 21.9766 59.8491 21.7744 59.8491 21.0674V17.249C59.8491 14.4408 58.3539 13.7538 56.0306 13.7538C54.8991 13.7538 53.5856 13.7538 52.5557 13.7525L52.5152 15.6747C53.6231 15.6759 54.6568 15.6732 55.566 15.6732C56.6367 15.6732 57.4245 15.8145 57.4245 17.1481V17.4626C57.4245 17.4626 56.4509 17.4696 55.465 17.4696C53.1776 17.4696 51.5051 18.6266 51.5051 20.8891C51.5051 22.5056 52.4345 23.9292 54.6163 23.9292C56.0913 23.9292 57.1621 23.3304 57.7278 22.4817C57.8893 23.3304 58.5357 23.8554 59.4854 23.8554C60.132 23.8554 60.5587 23.8757 60.945 23.8757V21.9782ZM67.8835 13.9761L65.8834 21.5322H65.8631L63.8427 13.9761H61.1959L64.1862 23.4918H65.2368C64.772 24.9062 64.3882 25.4312 63.2568 25.4312C62.7588 25.4312 62.2923 25.378 61.5882 25.1605V26.9988C62.2185 27.2068 62.9035 27.3305 63.6811 27.3305C66.1863 27.3305 66.853 25.6335 67.7016 22.8252L70.4291 13.9761H67.8835Z" fill="#F8FAFC"/>
<path d="M13.8889 20.288C13.8889 22.2506 12.2922 23.8474 10.3294 23.8474H10.2486C8.28576 23.8474 6.6891 22.2506 6.6891 20.288V11.1914H4.28906V20.288C4.28906 23.5739 6.96258 26.2475 10.2486 26.2475H10.3294C13.6154 26.2475 16.2889 23.5739 16.2889 20.288V15.4433H13.8889V20.288Z" fill="#F8FAFC"/>
<path d="M9.10918 15.2469V21.9956H11.5092V15.2469C11.5092 14.3342 12.252 13.5914 13.1649 13.5914H16.3086V11.1914H13.1649C10.9286 11.1914 9.10918 13.0108 9.10918 15.2469Z" fill="#F8FAFC"/>
</svg>
