<svg width="43" height="42" viewBox="0 0 43 42" fill="none" xmlns="http://www.w3.org/2000/svg">
<rect x="0.273438" width="42" height="42" rx="21" fill="#5E6165"/>
<g clip-path="url(#clip0_220_16411)">
<path d="M13.1987 12.9502H27.5646C29.0949 12.9502 30.3354 14.1908 30.3354 15.7211V18.4902C29.3877 17.8767 28.2789 17.4909 27.0865 17.4101C26.5518 17.0449 26.2008 16.4305 26.2008 15.734H14.5623C14.5623 16.8543 13.6542 17.7623 12.5339 17.7623V22.6163C13.6542 22.6163 14.5623 23.5243 14.5623 24.6446H19.7741C19.8312 25.6451 20.103 26.5882 20.544 27.4285H10.8541C10.6187 27.4285 10.4277 27.2376 10.4277 27.0022V15.7211C10.4277 14.1908 11.6684 12.9502 13.1987 12.9502Z" fill="white"/>
<path d="M20.3817 17.6316C21.2663 17.6316 22.0461 18.0808 22.5054 18.7635C21.233 19.7187 20.3039 21.1064 19.9363 22.7084C18.736 22.4977 17.824 21.45 17.824 20.1893C17.824 18.7768 18.9691 17.6316 20.3817 17.6316Z" fill="white"/>
<path fill-rule="evenodd" clip-rule="evenodd" d="M26.6162 18.5861C29.743 18.5861 32.2777 21.1209 32.2777 24.2477C32.2777 27.3744 29.743 29.9092 26.6162 29.9092C23.4894 29.9092 20.9547 27.3744 20.9547 24.2477C20.9547 21.1209 23.4894 18.5861 26.6162 18.5861ZM26.1537 27.3509C26.4096 27.5837 26.8253 27.5837 27.0812 27.3509L29.7022 24.9669C29.9581 24.7341 29.9581 24.356 29.7022 24.1232C29.4462 23.8904 29.0306 23.8904 28.7746 24.1232L27.2717 25.4903V21.5661C27.2717 21.2364 26.9789 20.9701 26.6164 20.9701C26.254 20.9701 25.9612 21.2364 25.9612 21.5661V25.4903L24.4582 24.1232C24.2023 23.8904 23.7866 23.8904 23.5307 24.1232C23.2747 24.356 23.2747 24.7341 23.5307 24.9669L26.1516 27.3509H26.1537Z" fill="white"/>
</g>
<defs>
<clipPath id="clip0_220_16411">
<rect width="23" height="23" fill="white" transform="translate(9.77344 9.5)"/>
</clipPath>
</defs>
</svg>
