<svg width="43" height="42" viewBox="0 0 43 42" fill="none" xmlns="http://www.w3.org/2000/svg">
<circle cx="21.2734" cy="21" r="21" fill="#2F413C"/>
<path fill-rule="evenodd" clip-rule="evenodd" d="M14.155 14H27.6341C29.2277 14 30.5195 15.2919 30.5195 16.8855V25.1146C30.5195 26.7081 29.2277 28 27.6341 28H11.6817C11.4541 28 11.2695 27.8155 11.2695 27.5878V16.8855C11.2695 15.2919 12.5614 14 14.155 14ZM13.3934 26.0778H17.6523C18.1076 26.0778 18.4767 25.7088 18.4767 25.2534V23.4022C18.4767 22.9469 18.1076 22.5778 17.6523 22.5778H14.0117C13.5565 22.5778 13.1873 22.9469 13.1873 23.4022V25.8717C13.1873 25.9855 13.2796 26.0778 13.3934 26.0778ZM13.7797 18.3092H23.1989C23.5404 18.3092 23.8172 18.0324 23.8172 17.6909V17.1138C23.8172 16.7723 23.5404 16.4955 23.1989 16.4955H13.7797C13.4382 16.4955 13.1614 16.7723 13.1614 17.1138V17.6909C13.1614 18.0324 13.4382 18.3092 13.7797 18.3092ZM25.7642 18.3092H28.0103C28.3518 18.3092 28.6286 18.0324 28.6286 17.6909V17.1138C28.6286 16.7723 28.3518 16.4955 28.0103 16.4955H25.7642C25.4227 16.4955 25.1459 16.7723 25.1459 17.1138V17.6909C25.1459 18.0324 25.4227 18.3092 25.7642 18.3092Z" fill="white"/>
</svg>
