<svg width="21" height="20" viewBox="0 0 21 20" fill="none" xmlns="http://www.w3.org/2000/svg">
<path d="M7.69714 17.2243C7.5388 17.2243 7.38047 17.166 7.25547 17.041C7.0138 16.7993 7.0138 16.3993 7.25547 16.1576L12.6888 10.7243C13.0888 10.3243 13.0888 9.67428 12.6888 9.27428L7.25547 3.84095C7.0138 3.59928 7.0138 3.19928 7.25547 2.95762C7.49714 2.71595 7.89713 2.71595 8.1388 2.95762L13.5721 8.39095C13.9971 8.81595 14.2388 9.39095 14.2388 9.99928C14.2388 10.6076 14.0055 11.1826 13.5721 11.6076L8.1388 17.041C8.0138 17.1576 7.85547 17.2243 7.69714 17.2243Z" fill="#A88D67"/>
</svg>
